<svg width="23" height="23" viewBox="0 0 23 23" fill="none" xmlns="http://www.w3.org/2000/svg">
<g clip-path="url(#clip0_3_149)">
<path d="M19.3775 16.3172L13.1547 4.85555C12.99 4.55286 12.7466 4.30018 12.4504 4.12412C12.1541 3.94807 11.8159 3.85515 11.4712 3.85515C11.1266 3.85515 10.7884 3.94807 10.4921 4.12412C10.1958 4.30018 9.95251 4.55286 9.78776 4.85555L3.5586 16.3172C3.39556 16.6099 3.31206 16.9401 3.31645 17.2751C3.32083 17.6101 3.41294 17.9381 3.58358 18.2263C3.75422 18.5146 3.99744 18.7532 4.289 18.9181C4.58056 19.0831 4.91027 19.1688 5.24526 19.1667H17.6908C18.0231 19.167 18.3497 19.0809 18.6386 18.9169C18.9276 18.7529 19.169 18.5166 19.339 18.2312C19.5091 17.9458 19.6021 17.6211 19.6088 17.2889C19.6156 16.9567 19.5359 16.6285 19.3775 16.3364V16.3172ZM10.5161 8.13944C10.5161 7.88528 10.6171 7.64152 10.7968 7.4618C10.9765 7.28208 11.2203 7.18111 11.4744 7.18111C11.7286 7.18111 11.9724 7.28208 12.1521 7.4618C12.3318 7.64152 12.4328 7.88528 12.4328 8.13944V12.5414C12.4328 12.7956 12.3318 13.0393 12.1521 13.219C11.9724 13.3988 11.7286 13.4997 11.4744 13.4997C11.2203 13.4997 10.9765 13.3988 10.7968 13.219C10.6171 13.0393 10.5161 12.7956 10.5161 12.5414V8.13944ZM11.5 16.7708C11.2826 16.7708 11.0702 16.7064 10.8895 16.5856C10.7088 16.4649 10.5679 16.2933 10.4847 16.0925C10.4016 15.8917 10.3798 15.6707 10.4222 15.4576C10.4646 15.2444 10.5693 15.0486 10.723 14.8949C10.8766 14.7412 11.0724 14.6366 11.2856 14.5942C11.4988 14.5518 11.7197 14.5735 11.9205 14.6567C12.1213 14.7399 12.2929 14.8807 12.4137 15.0614C12.5344 15.2421 12.5989 15.4546 12.5989 15.6719C12.5989 15.9634 12.4831 16.2429 12.277 16.449C12.0709 16.6551 11.7914 16.7708 11.5 16.7708Z" fill="#FF0000"/>
</g>
<defs>
<clipPath id="clip0_3_149">
<rect width="23" height="23" fill="white"/>
</clipPath>
</defs>
</svg>
